<svg xmlns="http://www.w3.org/2000/svg" style="display: none;"><symbol id="hotel" viewBox="0 0 512 512"><title>hotel</title><g> <g> <path d="M226.486,285.599h-55.807c-5.523,0-10,4.477-10,10v54.093c0,5.523,4.477,10,10,10h55.807c5.523,0,10-4.477,10-10v-54.093 C236.486,290.076,232.009,285.599,226.486,285.599z M216.486,339.692h-35.807v-34.093h35.807V339.692z"/> </g> </g><g> <g> <path d="M341.321,285.599h-55.807c-5.523,0-10,4.477-10,10v54.093c0,5.523,4.477,10,10,10h55.807c5.523,0,10-4.477,10-10v-54.093 C351.321,290.076,346.844,285.599,341.321,285.599z M331.321,339.692h-35.807v-34.093h35.807V339.692z"/> </g> </g><g> <g> <path d="M226.486,189.896h-55.807c-5.523,0-10,4.477-10,10v54.093c0,5.523,4.477,10,10,10h55.807c5.523,0,10-4.477,10-10v-54.093 C236.486,194.373,232.009,189.896,226.486,189.896z M216.486,243.989h-35.807v-34.093h35.807V243.989z"/> </g> </g><g> <g> <path d="M341.321,189.896h-55.807c-5.523,0-10,4.477-10,10v54.093c0,5.523,4.477,10,10,10h55.807c5.523,0,10-4.477,10-10v-54.093 C351.321,194.373,346.844,189.896,341.321,189.896z M331.321,243.989h-35.807v-34.093h35.807V243.989z"/> </g> </g><g> <g> <path d="M226.486,94.193h-55.807c-5.523,0-10,4.477-10,10v54.093c0,5.523,4.477,10,10,10h55.807c5.523,0,10-4.477,10-10v-54.093 C236.486,98.67,232.009,94.193,226.486,94.193z M216.486,148.286h-35.807v-34.093h35.807V148.286z"/> </g> </g><g> <g> <path d="M341.321,94.193h-55.807c-5.523,0-10,4.477-10,10v54.093c0,5.523,4.477,10,10,10h55.807c5.523,0,10-4.477,10-10v-54.093 C351.321,98.67,346.844,94.193,341.321,94.193z M331.321,148.286h-35.807v-34.093h35.807V148.286z"/> </g> </g><g> <g> <path d="M139.968,147.291c-2.626-4.859-8.692-6.669-13.551-4.044l-0.212,0.115l-0.073,0.039c-4.859,2.625-6.67,8.692-4.044,13.551 c0.975,1.804,2.432,3.171,4.117,4.063c1.442,0.764,3.05,1.185,4.69,1.185c1.604,0,3.232-0.388,4.744-1.204l0.285-0.154 C140.783,158.217,142.594,152.15,139.968,147.291z"/> </g> </g><g> <g> <path d="M502,483.106h-20.468c-1.621-20.592-19.28-36.867-40.77-36.867c-1.256,0-2.512,0.057-3.762,0.17 c-9.548-12.191-24.471-19.525-40.454-19.525c-0.25,0-0.5,0.021-0.75,0.024V78.697c0-16.694-13.581-30.275-30.275-30.275h-7.322 V27.215c0-5.011-3.708-9.248-8.675-9.912l-62.247-8.322c-2.857-0.379-5.741,0.488-7.911,2.387 c-2.169,1.899-3.414,4.642-3.414,7.525v29.53H146.479c-16.694,0-30.275,13.581-30.275,30.275v29.657c0,5.523,4.477,10,10,10 c5.523,0,10-4.477,10-10V78.697c0-5.666,4.609-10.275,10.275-10.275H365.52c5.666,0,10.275,4.609,10.275,10.275v359.581v44.828 h-41.807v-90.923c0-5.523-4.477-10-10-10H256h-67.988c-5.523,0-10,4.477-10,10v90.923h-41.807v-44.828V195.061 c0-5.523-4.477-10-10-10c-5.523,0-10,4.477-10,10v231.847c-0.25-0.004-0.5-0.024-0.75-0.024c-15.983,0-30.906,7.334-40.454,19.525 c-1.25-0.113-2.506-0.17-3.762-0.17c-21.49,0-39.149,16.275-40.77,36.867H10c-5.523,0-10,4.477-10,10s4.477,10,10,10h31.17h85.034 h61.807h135.977h61.807h85.034H502c5.523,0,10-4.477,10-10S507.523,483.106,502,483.106z M338.199,48.422h-42.247V30.318 l42.247,5.648V48.422z M116.205,483.106H50.584v0c1.559-9.542,10.227-16.867,20.654-16.867c1.945,0,3.887,0.262,5.773,0.778 c4.405,1.205,9.064-0.725,11.327-4.69c5.433-9.525,15.823-15.443,27.117-15.443c0.25,0,0.5,0.003,0.75,0.009V483.106z M246,483.106h-47.988v-80.923H246V483.106z M313.988,483.106H266v-80.923h47.988V483.106z M395.795,483.106v-36.213 c0.25-0.006,0.5-0.009,0.75-0.009c11.293,0,21.684,5.917,27.117,15.443c2.262,3.966,6.924,5.896,11.327,4.69 c1.886-0.516,3.828-0.778,5.773-0.778c10.427,0,19.095,7.325,20.654,16.867H395.795z"/> </g> </g></symbol><symbol id="wallet" viewBox="0 0 512 512"><title>wallet</title><path d="M502,202.088h-17.434v-87.615c0-16.26-13.229-29.489-29.489-29.489h-2.342l-2.84-54.259 c-0.397-7.594-3.728-14.579-9.379-19.667c-5.651-5.088-12.948-7.68-20.539-7.275L79.313,21.613 C63.637,22.434,51.55,35.855,52.371,51.532l1.751,33.452h-4.905C22.079,84.984,0,107.063,0,134.201v261.28 c0,27.138,22.079,49.217,49.217,49.217h61.029c4.896,35.845,35.694,63.56,72.861,63.56c28.466,0,54.19-16.485,66.314-41.742 c1.266,0.065,2.539,0.099,3.821,0.099c20.453,0,38.976-8.397,52.322-21.917h149.514c16.26,0,29.489-13.229,29.489-29.488v-71.177 H502c5.523,0,10-4.477,10-10V212.088C512,206.565,507.523,202.088,502,202.088z M80.359,41.586l340.665-17.83 c2.259-0.119,4.429,0.651,6.11,2.164c1.681,1.514,2.672,3.592,2.79,5.851l2.786,53.213H74.149l-1.805-34.498 C72.1,45.822,75.696,41.83,80.359,41.586z M183.107,488.258c-29.533,0-53.559-24.027-53.559-53.56 c0-28.706,22.702-52.209,51.093-53.503c-0.017,0.102-0.027,0.205-0.044,0.306c-0.067,0.42-0.121,0.844-0.18,1.267 c-0.101,0.715-0.194,1.431-0.274,2.149c-0.047,0.428-0.09,0.857-0.13,1.287c-0.071,0.765-0.128,1.532-0.175,2.3 c-0.023,0.373-0.05,0.745-0.068,1.119c-0.053,1.142-0.087,2.286-0.087,3.433c0,1.178,0.033,2.354,0.089,3.526 c0.022,0.474,0.064,0.944,0.095,1.416c0.046,0.679,0.091,1.358,0.155,2.034c0.056,0.596,0.129,1.187,0.199,1.779 c0.064,0.535,0.128,1.07,0.204,1.603c0.093,0.66,0.199,1.315,0.31,1.969c0.077,0.452,0.157,0.902,0.242,1.352 c0.132,0.698,0.271,1.392,0.423,2.083c0.087,0.398,0.182,0.794,0.275,1.19c0.17,0.717,0.344,1.432,0.534,2.141 c0.1,0.371,0.21,0.738,0.315,1.107c0.205,0.716,0.409,1.431,0.635,2.138c0.124,0.389,0.263,0.772,0.393,1.158 c0.227,0.672,0.449,1.346,0.694,2.009c0.383,1.037,0.789,2.066,1.219,3.085c0.027,0.064,0.058,0.127,0.086,0.191 c0.435,1.024,0.896,2.038,1.378,3.042c0.036,0.075,0.076,0.148,0.112,0.223c0.485,1.003,0.994,1.994,1.525,2.974 c0.01,0.018,0.02,0.035,0.029,0.053c2.473,4.558,5.425,8.874,8.847,12.854c6.602,7.677,14.674,13.85,23.637,18.215 c0.183,0.089,0.365,0.179,0.548,0.266c0.958,0.457,1.924,0.898,2.901,1.314c0.168,0.071,0.339,0.136,0.507,0.206 c0.791,0.329,1.589,0.643,2.392,0.945c0.333,0.125,0.666,0.25,1.002,0.37c0.159,0.057,0.315,0.119,0.473,0.174 C219.329,478.237,202.049,488.258,183.107,488.258z M253.242,446.616c-3.155,0-6.242-0.29-9.25-0.816 c-0.566-0.098-1.132-0.196-1.691-0.311c-21.665-4.515-38.57-22.156-41.985-44.199c-0.008-0.05-0.016-0.1-0.024-0.15 c-0.115-0.758-0.209-1.522-0.292-2.289c-0.016-0.155-0.037-0.309-0.052-0.464c-0.069-0.693-0.118-1.392-0.16-2.093 c-0.012-0.198-0.03-0.393-0.04-0.591c-0.043-0.877-0.067-1.758-0.067-2.646c0-0.85,0.025-1.694,0.064-2.534 c0.013-0.284,0.036-0.567,0.054-0.851c0.035-0.555,0.075-1.108,0.126-1.658c0.032-0.337,0.069-0.672,0.107-1.008 c0.056-0.494,0.119-0.986,0.188-1.476c0.05-0.353,0.101-0.707,0.158-1.059c0.077-0.473,0.164-0.942,0.253-1.411 c0.067-0.352,0.129-0.705,0.203-1.056c0.106-0.504,0.227-1.003,0.347-1.502c0.109-0.451,0.22-0.901,0.341-1.349 c0.164-0.608,0.332-1.215,0.517-1.815c0.1-0.325,0.213-0.647,0.319-0.971c7.032-21.383,27.177-36.87,50.883-36.87 c29.533,0,53.56,24.026,53.56,53.559C306.801,422.589,282.774,446.616,253.242,446.616z M464.566,415.21 c0,5.232-4.257,9.488-9.489,9.488H319.636c4.589-9.59,7.165-20.32,7.165-31.643c0-40.561-32.999-73.559-73.56-73.559 c-29.176,0-54.438,17.074-66.321,41.755c-1.275-0.067-2.548-0.113-3.814-0.113c-37.167,0-67.965,27.714-72.861,63.56H96.353 V306.005c0-5.523-4.477-10-10-10c-5.523,0-10,4.477-10,10v118.694H49.217c-16.11,0-29.217-13.106-29.217-29.217v-261.28 c0-16.11,13.106-29.217,29.217-29.217h15.442h378.586h11.832c5.232,0,9.489,4.257,9.489,9.489v87.615h-60.492 c-39.134,0-70.973,31.838-70.973,70.973c0,39.135,31.838,70.973,70.973,70.973h60.492V415.21z M492,324.033h-17.434h-70.492 c-28.106,0-50.973-22.866-50.973-50.973s22.866-50.973,50.973-50.973h70.492H492V324.033z"/><path d="M408.853,236.212c-20.62,0-37.396,16.776-37.396,37.396c0,20.621,16.776,37.396,37.396,37.396 c20.621,0,37.396-16.776,37.396-37.396S429.473,236.212,408.853,236.212z M408.853,291.005c-9.592,0-17.396-7.804-17.396-17.396 c0-9.592,7.804-17.396,17.396-17.396c9.592,0,17.396,7.804,17.396,17.396C426.249,283.201,418.445,291.005,408.853,291.005z"/><path d="M95.91,257.731c-0.25-0.61-0.56-1.19-0.92-1.73c-0.37-0.54-0.79-1.06-1.25-1.52c-0.46-0.46-0.97-0.88-1.52-1.24 c-0.54-0.36-1.12-0.67-1.72-0.92c-0.61-0.25-1.24-0.44-1.87-0.57c-1.29-0.26-2.62-0.26-3.91,0c-0.64,0.13-1.27,0.32-1.87,0.57 c-0.61,0.25-1.19,0.56-1.73,0.92c-0.55,0.36-1.06,0.78-1.52,1.24c-0.46,0.46-0.88,0.98-1.24,1.52c-0.36,0.54-0.67,1.12-0.92,1.73 c-0.25,0.6-0.44,1.23-0.57,1.87c-0.13,0.64-0.2,1.3-0.2,1.95s0.07,1.31,0.2,1.96c0.13,0.63,0.32,1.26,0.57,1.87 c0.25,0.6,0.56,1.18,0.92,1.72c0.36,0.55,0.78,1.06,1.24,1.52c0.46,0.47,0.97,0.88,1.52,1.25c0.54,0.36,1.12,0.67,1.73,0.92 c0.6,0.25,1.23,0.44,1.87,0.57c0.64,0.13,1.3,0.19,1.95,0.19c0.65,0,1.31-0.06,1.96-0.19c0.63-0.13,1.26-0.32,1.87-0.57 c0.6-0.25,1.18-0.56,1.72-0.92c0.55-0.37,1.06-0.78,1.52-1.25c0.46-0.46,0.88-0.97,1.25-1.52c0.36-0.54,0.67-1.12,0.92-1.72 c0.25-0.61,0.44-1.24,0.57-1.87c0.13-0.65,0.19-1.31,0.19-1.96c0-0.65-0.06-1.31-0.19-1.95 C96.35,258.961,96.16,258.331,95.91,257.731z"/></symbol><symbol id="calendar" viewBox="0 0 512 512"><title>calendar</title><g> <g> <path d="M429.3,373.832c-4.021-3.787-10.352-3.598-14.136,0.423c-1.058,1.123-22.665,24.272-33.42,51.258l-22.422-14.541 c-4.637-3.008-10.828-1.685-13.831,2.948c-3.005,4.636-1.684,10.828,2.949,13.833l33.389,21.653 c1.644,1.066,3.537,1.61,5.442,1.61c1.265,0,2.535-0.24,3.74-0.727c3.022-1.219,5.261-3.834,5.999-7.008 c6.257-26.905,32.454-55.037,32.713-55.313C433.51,383.947,433.321,377.617,429.3,373.832z"/> </g> </g><g> <g> <path d="M136.14,221.211c-22.083,0-40.049,17.966-40.049,40.049c0,22.082,17.966,40.048,40.049,40.048 c22.082,0,40.048-17.966,40.048-40.048C176.188,239.176,158.222,221.211,136.14,221.211z M136.14,281.307 c-11.055,0-20.049-8.993-20.049-20.048s8.994-20.049,20.049-20.049s20.048,8.994,20.048,20.049S147.195,281.307,136.14,281.307z"/> </g> </g><g> <g> <path d="M391.142,261.863l17.593-17.593c3.905-3.905,3.905-10.237,0-14.143c-3.906-3.904-10.236-3.904-14.143,0L377,247.721 l-17.593-17.593c-3.906-3.904-10.236-3.904-14.143,0c-3.905,3.905-3.905,10.237,0,14.143l17.593,17.593l-17.593,17.593 c-3.905,3.904-3.905,10.236,0.001,14.142c1.953,1.952,4.512,2.929,7.071,2.929s5.118-0.977,7.071-2.929L377,276.006l17.593,17.593 c1.953,1.952,4.512,2.929,7.071,2.929s5.118-0.977,7.071-2.929c3.905-3.905,3.905-10.237,0-14.143L391.142,261.863z"/> </g> </g><g> <g> <path d="M63.249,326.69c-0.46-0.46-0.97-0.88-1.521-1.25c-0.54-0.359-1.12-0.67-1.72-0.92c-0.61-0.25-1.24-0.439-1.88-0.569 c-1.29-0.261-2.61-0.261-3.9,0c-0.64,0.13-1.27,0.319-1.87,0.569c-0.609,0.25-1.189,0.561-1.729,0.92 c-0.55,0.37-1.061,0.79-1.521,1.25c-0.46,0.46-0.88,0.971-1.239,1.521c-0.36,0.54-0.67,1.12-0.92,1.72 c-0.25,0.61-0.45,1.23-0.57,1.87c-0.13,0.649-0.2,1.298-0.2,1.958v0.002c0.001,0.649,0.071,1.299,0.201,1.949 c0.12,0.64,0.32,1.27,0.57,1.87c0.25,0.609,0.56,1.189,0.92,1.729c0.359,0.55,0.779,1.061,1.239,1.521 c0.46,0.46,0.971,0.88,1.521,1.239c0.54,0.36,1.12,0.671,1.729,0.921c0.601,0.25,1.23,0.439,1.87,0.569 c0.641,0.13,1.301,0.2,1.95,0.2c0.65,0,1.311-0.07,1.95-0.2c0.639-0.13,1.27-0.319,1.88-0.569c0.6-0.25,1.18-0.561,1.72-0.921 c0.551-0.359,1.061-0.779,1.521-1.239s0.88-0.971,1.24-1.521c0.369-0.54,0.67-1.12,0.92-1.729c0.25-0.601,0.449-1.23,0.569-1.87 c0.13-0.65,0.2-1.3,0.2-1.95v-0.002C66.178,331.119,65.108,328.55,63.249,326.69z"/> </g> </g><g> <g> <path d="M455.104,75.474h-35.855V61.899c0-23.925-19.464-43.389-43.389-43.389c-23.924,0-43.388,19.464-43.388,43.389v13.574 H179.527V61.899c0-23.925-19.464-43.389-43.388-43.389c-23.925,0-43.389,19.464-43.389,43.389v13.574H56.896 C25.523,75.474,0,100.996,0,132.368v51.656v272.385c0,20.446,16.635,37.081,37.081,37.081H256h218.919 c9.769,0,18.662-3.804,25.292-10c0.616-0.576,1.213-1.172,1.789-1.789c6.196-6.63,10-15.523,10-25.292V184.024v-51.656 C512,100.996,486.477,75.474,455.104,75.474z M352.473,61.899c0-12.896,10.491-23.389,23.388-23.389 c12.897,0,23.389,10.492,23.389,23.389v47.149c0,12.896-10.492,23.388-23.389,23.388c-12.897,0-23.388-10.491-23.388-23.388 V61.899z M112.751,61.899c0-12.896,10.492-23.389,23.389-23.389c12.897,0,23.388,10.492,23.388,23.389v47.149 c0,12.896-10.491,23.388-23.388,23.388c-12.897,0-23.389-10.491-23.389-23.388V61.899z M246,323.757H107.732 c-5.522,0-10,4.478-10,10c0,5.522,4.478,10,10,10H246V473.49H37.081c-9.419,0-17.081-7.662-17.081-17.081V333.757V194.024h226 V323.757z M492,456.409c0,9.419-7.662,17.081-17.081,17.081H266V343.757h226V456.409z M492,323.757H266V194.024h226V323.757z M492,174.024H20v-41.656c0-17.801,12.672-32.698,29.469-36.145c2.4-0.492,4.883-0.751,7.426-0.751H92.75v13.575 c0,23.924,19.464,43.388,43.389,43.388c23.924,0,43.388-19.464,43.388-43.388V95.474h152.945v13.575 c0,23.924,19.464,43.388,43.388,43.388c23.925,0,43.389-19.464,43.389-43.388V95.474h35.855c2.543,0,5.027,0.259,7.426,0.751 C479.328,99.67,492,114.568,492,132.368V174.024z"/> </g> </g></symbol><symbol id="traveler" viewBox="0 0 511.999 511.999"><title>traveler</title><g> <g> <path d="M505.372,245.319l-1.178-3.031c-3.884-10.043-13.353-16.533-24.123-16.533h-53.835 c-11.299-18.892-31.924-30.789-54.216-30.789h-11.237v-25.34h11.755c6.763,0,12.962-3.41,16.585-9.12 c3.622-5.71,4.063-12.772,1.181-18.889l-12.184-25.861C376.895,56.485,328.303,8.644,268.743,8.644h-25.477 c-59.56,0-108.151,47.84-109.378,107.111l-12.184,25.862c-2.882,6.117-2.441,13.179,1.182,18.889 c3.622,5.71,9.821,9.12,16.584,9.12h11.755v25.34h-11.237c-22.296,0-42.925,11.902-54.217,30.789H31.757 c-10.589,0-19.998,6.349-23.962,16.151l-0.642,1.578c-9.538,23.596-9.538,49.585,0,73.184l0.633,1.563 c3.971,9.819,13.38,16.164,23.972,16.164h45.095v6.802c-10.897,20.448-16.661,43.401-16.661,66.575v62.581 c0,18.197,14.805,33.003,33.002,33.003h62.919h199.779h62.919c18.198,0,33.003-14.805,33.003-33.003v-62.581 c0-23.174-5.764-46.127-16.661-66.575v-6.802h45.275c5.095,0,10.035-1.487,14.284-4.3c4.244-2.808,7.539-6.78,9.53-11.487 C514.181,295.136,514.583,269.111,505.372,245.319z M360.785,226.522v-11.559h11.236c16.735,0,32.1,9.812,39.151,25.013 c2.645,5.678,3.986,11.775,3.986,18.123v54.641c-16.303-18.006-38.737-33.149-62.663-39.236c-0.728-0.186-1.459-0.364-2.192-0.535 c5.402-11.377,8.813-23.687,9.992-36.241C360.62,233.412,360.785,229.978,360.785,226.522z M140.033,149.629l10.165-21.577 h100.097c5.522,0,9.999-4.477,9.999-9.999v-0.001c-0.001-5.521-4.477-9.997-9.998-9.997h-95.879 c4.986-44.613,42.927-79.414,88.849-79.414h25.477c45.922,0,83.862,34.801,88.849,79.414h-26.98c-5.522,0-9.998,4.476-9.998,9.997 v0.001c0,5.522,4.476,9.999,9.999,9.999h31.198l10.165,21.577h-21.189H161.223H140.033z M340.786,169.626v35.338v21.557 c0,2.808-0.133,5.587-0.398,8.297c-1.345,14.319-6.232,28.217-14.146,40.212c-6.972,10.623-15.966,19.437-26.737,26.199 c-4.129,2.596-8.447,4.786-12.894,6.57c-3.169,1.271-6.403,2.337-9.683,3.197c-14.21,3.725-29.255,3.583-43.403-0.424 c-7.332-2.077-14.422-5.193-21.03-9.347c-2.562-1.608-5.016-3.341-7.374-5.179c-7.552-5.888-14.053-12.933-19.391-21.066 c-1.222-1.839-2.4-3.782-3.504-5.784c-5.909-10.695-9.479-22.258-10.612-34.419c-0.261-2.665-0.394-5.443-0.394-8.256v-21.557 v-35.338H340.786z M96.914,255.731c0.293-5.498,1.61-10.789,3.93-15.77c7.044-15.186,22.409-24.998,39.145-24.998h11.237v11.559 c0,3.462,0.165,6.896,0.485,10.161c1.181,12.666,4.533,24.841,9.978,36.276c-22.925,5.315-44.129,18.636-60.603,35.313 c-0.159,0.161-0.315,0.326-0.473,0.487c-1.235,1.263-2.452,2.546-3.642,3.858c-0.039,0.042-0.08,0.082-0.118,0.125v-54.643h-0.002 C96.851,257.306,96.872,256.516,96.914,255.731z M77.849,246.938c-0.079,0.443-0.16,0.885-0.229,1.33 c-0.102,0.656-0.186,1.317-0.268,1.978c-0.052,0.423-0.111,0.844-0.155,1.269c-0.075,0.73-0.127,1.464-0.177,2.199 c-0.024,0.36-0.06,0.718-0.078,1.079c-0.056,1.097-0.088,2.199-0.088,3.307v56.299H31.757c-2.401,0-4.533-1.438-5.433-3.664 l-0.632-1.561c-7.585-18.764-7.585-39.431-0.01-58.169l0.642-1.577c0.903-2.232,3.035-3.674,5.433-3.674h46.296 C77.976,246.147,77.919,246.544,77.849,246.938z M418.813,483.359h-52.92v-52.893c0-5.522-4.476-9.999-9.999-9.999 c-5.523,0-9.999,4.477-9.999,9.999v52.893H166.113v-52.893c0-5.522-4.476-9.999-9.999-9.999s-9.999,4.477-9.999,9.999v52.893 h-52.92c-7.171,0-13.005-5.834-13.005-13.006v-62.581c0-20.666,5.323-41.134,15.392-59.188c0.537-0.962,1.084-1.911,1.621-2.823 c3.144-5.287,6.685-10.34,10.532-15.025c15.605-19.035,38.856-35.457,64.929-39.554c7.976,10.749,17.774,19.806,29.196,26.976 c32.893,20.679,75.398,20.679,108.286,0.004c11.423-7.172,21.221-16.228,29.196-26.975c2.766,0.437,5.512,1.004,8.215,1.694 c21.899,5.573,42.433,20.429,56.72,37.856c1.138,1.388,2.248,2.805,3.326,4.246c3.235,4.326,6.192,8.88,8.821,13.595 c10.072,18.059,15.395,38.527,15.395,59.193v62.582h0C431.819,477.525,425.984,483.359,418.813,483.359z M485.829,310.813 c-0.001,0.001-0.001,0.003-0.002,0.005c-0.453,1.071-1.196,1.97-2.15,2.602c-0.967,0.64-2.09,0.978-3.247,0.978h-45.275v-56.299 c0-1.108-0.032-2.21-0.088-3.308c-0.018-0.363-0.054-0.722-0.079-1.083c-0.05-0.733-0.102-1.465-0.177-2.193 c-0.044-0.431-0.104-0.858-0.157-1.287c-0.081-0.653-0.164-1.305-0.265-1.953c-0.071-0.456-0.154-0.91-0.235-1.364 c-0.069-0.386-0.124-0.775-0.2-1.16h46.117c2.443,0,4.592,1.471,5.477,3.761l1.179,3.035 C494.049,271.459,493.73,292.151,485.829,310.813z"/> </g> </g><g> <g> <path d="M300.253,116.101c-0.574-3.063-2.746-5.954-5.979-7.279c-0.6-0.25-1.23-0.44-1.87-0.57 c-4.544-0.915-9.331,1.471-11.178,5.98c-1.306,3.132-0.918,6.687,0.92,9.369c1.695,2.59,4.806,4.449,8.309,4.449 c0.65,0,1.31-0.069,1.949-0.199c0.64-0.12,1.27-0.32,1.87-0.57c3.196-1.31,5.389-4.173,5.979-7.268 c0.13-0.649,0.2-1.308,0.2-1.957v-0.001v-0.005C300.453,117.401,300.383,116.741,300.253,116.101z"/> </g> </g><g> <g> <path d="M285.816,255.887c-3.452-4.312-9.744-5.01-14.054-1.557c-9.281,7.429-22.246,7.429-31.527,0 c-4.313-3.452-10.604-2.754-14.054,1.557c-3.45,4.312-2.753,10.604,1.558,14.054c8.32,6.66,18.29,9.99,28.26,9.99 c9.97,0,19.941-3.33,28.26-9.99C288.57,266.49,289.267,260.198,285.816,255.887z"/> </g> </g></symbol></svg>