<svg xmlns="http://www.w3.org/2000/svg" style="display: none;"><symbol id="user" viewBox="0 0 512 512"><title>user</title><path d="M398.957,355.402c-0.002-0.001-0.004-0.003-0.007-0.004c-7.975-5.173-14.392-7.628-15.912-8.174l-46.28-19.286 l-32.629-21.532c-0.314-0.208-0.641-0.381-0.972-0.54v-13.951c24.638-12.301,42.487-36.218,46.339-64.536 c19.865-1.608,35.541-18.277,35.541-38.549c0-10.031-3.838-19.181-10.12-26.062v-49.508C374.919,50.807,324.112,0,261.661,0 h-8.767c-62.446,0-113.25,50.807-113.25,113.257v48.955c-6.59,6.941-10.647,16.311-10.647,26.615 c0,20.272,15.676,36.941,35.541,38.549c3.853,28.319,21.703,52.236,46.342,64.536v13.047l-34.011,22.442 c-0.461,0.102-0.92,0.238-1.371,0.426l-46.534,19.392c-2.327,0.833-16.002,6.088-29.579,18.91 c-13.44,12.692-29.461,35.528-29.461,72.25v65.485c0,4.49,3.638,8.131,8.129,8.131h96.024c4.49,0,8.129-3.638,8.129-8.129 c0-4.49-3.638-8.129-8.129-8.129h-25.041v-60.335c0-4.49-3.638-8.129-8.129-8.129s-8.129,3.638-8.129,8.129v60.335H86.183 v-57.356c0-58.562,46.342-75.194,48.286-75.864c0.182-0.062,0.361-0.128,0.538-0.202l38.763-16.154l41.9,149.577h-16.152 c-4.49,0-8.129,3.638-8.129,8.129s3.638,8.129,8.129,8.129h26.84c0.009,0,0.017,0.002,0.027,0.002 c0.011,0,0.022-0.002,0.031-0.002h61.233h0.022h0.09c0.011,0,0.022,0.002,0.031,0.002c0.009,0,0.017-0.002,0.027-0.002h146.127 c4.49,0,8.129-3.656,8.129-8.145v-65.471C442.074,390.535,415.063,365.856,398.957,355.402z M323.631,338.752l-24.485,50.325 l-30.372-22.354l32.11-33.331c1.783-1.85,2.508-4.326,2.201-6.689c0.043-0.339,0.073-0.683,0.073-1.033v-0.426L323.631,338.752z M274.242,390.931l-6.387,17.01h-21.893v0.001l-7.187-17.155l17.635-12.979L274.242,390.931z M227.015,327.033 c0.075-0.444,0.124-0.898,0.124-1.365v-16.248c0-0.004,0-0.008,0-0.012v-11.365c6.885,1.808,14.105,2.778,21.55,2.778h16.665 c7.444,0,14.663-0.97,21.548-2.777v26.428l-30.263,31.414L227.015,327.033z M368.782,188.828 c-0.001,11.019-7.995,20.188-18.484,22.061v-44.125C360.787,168.636,368.782,177.807,368.782,188.828z M163.739,210.889 c-10.489-1.873-18.484-11.041-18.484-22.061c0-11.022,7.994-20.192,18.484-22.065V210.889z M171.9,142.322 c-0.012,0-0.024,0-0.035,0c-0.28,0-0.556,0.014-0.829,0.042c-0.086,0.009-0.168,0.027-0.254,0.039 c-0.185,0.025-0.371,0.048-0.552,0.085c-0.117,0.024-0.229,0.06-0.344,0.088c-0.145,0.037-0.292,0.067-0.434,0.112 c-0.132,0.041-0.259,0.094-0.388,0.141c-0.119,0.043-0.241,0.081-0.357,0.13c-0.148,0.063-0.289,0.137-0.434,0.208 c-0.091,0.046-0.186,0.085-0.276,0.133c-0.14,0.076-0.273,0.164-0.409,0.247c-0.087,0.054-0.177,0.102-0.261,0.159 c-0.129,0.087-0.249,0.184-0.373,0.277c-0.083,0.064-0.171,0.122-0.253,0.189c-0.112,0.091-0.214,0.192-0.32,0.289 c-0.086,0.078-0.176,0.153-0.258,0.234c-0.098,0.098-0.188,0.204-0.28,0.307c-0.081,0.09-0.167,0.176-0.244,0.269 c-0.086,0.103-0.161,0.214-0.242,0.321c-0.076,0.102-0.156,0.199-0.228,0.305c-0.07,0.104-0.131,0.215-0.197,0.322 c-0.07,0.116-0.146,0.228-0.211,0.347c-0.057,0.106-0.105,0.218-0.158,0.326c-0.062,0.128-0.129,0.253-0.184,0.384 c-0.046,0.106-0.08,0.218-0.12,0.326c-0.052,0.14-0.108,0.276-0.154,0.419c-0.035,0.109-0.059,0.224-0.088,0.336 c-0.039,0.146-0.082,0.292-0.114,0.441c-0.025,0.118-0.037,0.241-0.056,0.36c-0.024,0.147-0.052,0.294-0.068,0.444 c-0.013,0.126-0.014,0.255-0.021,0.382c-0.007,0.116-0.017,0.231-0.02,0.349c-2.706,0.275-5.327,0.836-7.841,1.642v-38.719 c0-53.483,43.511-96.997,96.993-96.997h8.767c53.487,0,97,43.514,97,97v38.898c-2.674-0.901-5.472-1.526-8.369-1.821 c0-0.034-0.004-0.067-0.005-0.101c-0.004-0.179-0.011-0.358-0.027-0.534c-0.01-0.107-0.027-0.212-0.041-0.319 c-0.021-0.155-0.041-0.31-0.07-0.464c-0.025-0.129-0.056-0.255-0.088-0.382c-0.03-0.126-0.06-0.251-0.096-0.375 c-0.042-0.144-0.092-0.285-0.142-0.426c-0.037-0.103-0.072-0.206-0.113-0.307c-0.06-0.148-0.127-0.294-0.195-0.438 c-0.043-0.091-0.085-0.182-0.131-0.271c-0.074-0.141-0.153-0.277-0.234-0.414c-0.053-0.09-0.106-0.181-0.163-0.269 c-0.081-0.125-0.167-0.245-0.255-0.365c-0.068-0.094-0.137-0.189-0.209-0.28c-0.085-0.105-0.172-0.206-0.261-0.308 c-0.087-0.099-0.172-0.196-0.263-0.29c-0.085-0.088-0.173-0.17-0.261-0.254c-0.103-0.098-0.207-0.194-0.315-0.286 c-0.089-0.075-0.181-0.146-0.273-0.218c-0.115-0.089-0.229-0.178-0.348-0.26c-0.1-0.069-0.203-0.133-0.306-0.198 c-0.117-0.074-0.234-0.147-0.355-0.216c-0.119-0.067-0.244-0.128-0.366-0.189c-0.111-0.054-0.219-0.111-0.333-0.16 c-0.146-0.065-0.297-0.12-0.449-0.177c-0.098-0.036-0.193-0.075-0.293-0.107c-0.168-0.055-0.339-0.1-0.512-0.144 c-0.073-0.018-0.143-0.044-0.217-0.061c-31.812-7.236-41.411-47.307-41.501-47.695c-0.705-3.115-3.17-5.529-6.299-6.168 c-3.129-0.643-6.343,0.61-8.216,3.2c-36.155,49.981-114.76,50.462-116.044,50.462C171.906,142.322,171.902,142.322,171.9,142.322 z M179.997,215.876v-57.579c20.783-1.277,76.003-8.193,111.522-45.373c6.127,14.414,18.815,35.462,42.521,43.641v59.311 c0,37.875-30.813,68.689-68.686,68.689h-16.665C210.811,284.564,179.997,253.75,179.997,215.876z M210.881,324.439v1.23 c0,0.861,0.137,1.69,0.384,2.468c-0.893,2.835-0.202,6.055,2.072,8.271l30.946,30.142l-30.609,22.528l-24.484-50.325 L210.881,324.439z M224.249,466.095l-15.942-56.912c0.127,0.038,0.25,0.085,0.379,0.116c0.644,0.158,1.296,0.236,1.947,0.236 c1.717,0,3.409-0.544,4.818-1.582l9.852-7.25l6.856,16.367L224.249,466.095z M235.934,495.74l11.542-71.54h19.087l11.541,71.54 H235.934z M281.854,416.908l5.994-15.962l9.522,7.008c1.41,1.038,3.101,1.582,4.818,1.582c0.65,0,1.303-0.078,1.947-0.236 c0.675-0.167,1.314-0.426,1.913-0.75l-16.207,57.857L281.854,416.908z M425.817,495.74L425.817,495.74h-46.599v-60.335 c0-4.49-3.638-8.129-8.129-8.129c-4.49,0-8.129,3.638-8.129,8.129v60.335h-64.454l41.671-148.766l36.815,15.342 c0.158,0.066,0.348,0.138,0.51,0.193c0.054,0.02,5.489,1.915,12.6,6.528c0.001,0.001,0.002,0.001,0.003,0.002 c16.292,10.576,35.712,31.191,35.712,69.344V495.74z"/><path d="M266.527,223.303c4.49,0,8.129-3.638,8.129-8.129c0-4.49-3.638-8.129-8.129-8.129h-6v-18.823 c0-4.489-3.638-8.129-8.129-8.129c-4.49,0-8.129,3.64-8.129,8.129v26.952c0,4.49,3.638,8.129,8.129,8.129H266.527z"/></symbol><symbol id="hotel" viewBox="0 0 512 512"><title>hotel</title><g> <g> <path d="M145.046,230.404H85.321c-4.712,0-8.532,3.82-8.532,8.532v85.321c0,4.712,3.82,8.532,8.532,8.532h59.725 c4.712,0,8.532-3.82,8.532-8.532v-85.321C153.578,234.224,149.758,230.404,145.046,230.404z M136.514,315.725H93.853v-68.257 h42.661V315.725z"/> </g> </g><g> <g> <path d="M290.091,230.404h-59.725c-4.712,0-8.532,3.82-8.532,8.532v85.321c0,4.712,3.82,8.532,8.532,8.532h59.725 c4.712,0,8.532-3.82,8.532-8.532v-85.321C298.623,234.224,294.803,230.404,290.091,230.404z M281.559,315.725h-42.66v-68.257 h42.66V315.725z"/> </g> </g><g> <g> <path d="M290.091,366.917h-59.725c-4.712,0-8.532,3.82-8.532,8.532v85.321c0,4.712,3.82,8.532,8.532,8.532h59.725 c4.712,0,8.532-3.82,8.532-8.532v-85.321C298.623,370.738,294.803,366.917,290.091,366.917z M281.559,452.238h-42.66v-68.257 h42.66V452.238z"/> </g> </g><g> <g> <path d="M426.605,230.404H366.88c-4.712,0-8.532,3.82-8.532,8.532v85.321c0,4.712,3.82,8.532,8.532,8.532h59.725 c4.712,0,8.532-3.82,8.532-8.532v-85.321C435.137,234.224,431.317,230.404,426.605,230.404z M418.073,315.725h-42.66v-68.257 h42.66V315.725z"/> </g> </g><g> <g> <path d="M145.046,366.917H85.321c-4.712,0-8.532,3.82-8.532,8.532v85.321c0,4.712,3.82,8.532,8.532,8.532h59.725 c4.712,0,8.532-3.82,8.532-8.532v-85.321C153.578,370.738,149.758,366.917,145.046,366.917z M136.514,452.238H93.853v-68.257 h42.661V452.238z"/> </g> </g><g> <g> <path d="M426.605,366.917H366.88c-4.712,0-8.532,3.82-8.532,8.532v85.321c0,4.712,3.82,8.532,8.532,8.532h59.725 c4.712,0,8.532-3.82,8.532-8.532v-85.321C435.137,370.738,431.317,366.917,426.605,366.917z M418.073,452.238h-42.66v-68.257 h42.66V452.238z"/> </g> </g><g> <g> <path d="M477.798,494.899V204.807h8.532c4.712,0,8.532-3.82,8.532-8.532v-42.66c0-4.712-3.82-8.532-8.532-8.532h-8.532v-34.128 c0-4.712-3.82-8.532-8.532-8.532h-17.064V8.569c0-4.712-3.82-8.532-8.532-8.532H68.257c-4.712,0-8.532,3.82-8.532,8.532v93.853 H42.661c-4.712,0-8.532,3.82-8.532,8.532v34.128h-8.532c-4.712,0-8.532,3.82-8.532,8.532v42.66c0,4.712,3.82,8.532,8.532,8.532 h8.532v290.091H0v17.064h42.661h426.605H512v-17.064H477.798z M76.789,17.101h358.348v85.321H76.789V17.101z M51.193,119.486 h17.064h375.412h17.064v25.596H51.193V119.486z M460.733,494.899H51.193V204.807h409.541V494.899z M42.661,187.743h-8.532v-25.596 h8.532h426.605h8.532v25.596h-8.532H42.661z"/> </g> </g><g> <g> <path d="M242.858,46.292c-1.357-3.468-3.263-6.463-5.721-8.984c-2.457-2.521-5.414-4.499-8.869-5.932 c-3.456-1.433-7.282-2.15-11.48-2.15c-4.198,0-8.031,0.71-11.499,2.131c-3.468,1.421-6.437,3.398-8.907,5.932 c-2.47,2.534-4.383,5.535-5.74,9.004c-1.357,3.468-2.035,7.237-2.035,11.307c0,4.07,0.678,7.839,2.035,11.307 c1.357,3.468,3.27,6.469,5.74,9.004c2.47,2.534,5.439,4.511,8.907,5.932c3.468,1.421,7.301,2.131,11.499,2.131 c4.198,0,8.024-0.71,11.48-2.131c3.456-1.42,6.412-3.398,8.869-5.932c2.457-2.534,4.364-5.535,5.721-9.004 c1.357-3.468,2.035-7.237,2.035-11.307C244.893,53.529,244.214,49.76,242.858,46.292z M233.086,65.796 c-0.806,2.419-1.965,4.467-3.475,6.143c-1.51,1.677-3.347,2.963-5.51,3.859c-2.163,0.896-4.601,1.344-7.314,1.344 c-2.713,0-5.158-0.448-7.333-1.344c-2.176-0.896-4.025-2.182-5.548-3.859c-1.523-1.677-2.694-3.724-3.513-6.143 c-0.819-2.419-1.229-5.151-1.229-8.197s0.41-5.778,1.229-8.197c0.819-2.419,1.99-4.473,3.513-6.162 c1.523-1.689,3.372-2.982,5.548-3.878c2.176-0.896,4.62-1.344,7.333-1.344c2.713,0,5.151,0.448,7.314,1.344 c2.163,0.896,3.999,2.189,5.51,3.878c1.51,1.689,2.668,3.743,3.475,6.162c0.806,2.419,1.209,5.151,1.209,8.197 S233.893,63.377,233.086,65.796z"/> </g> </g><g> <g> <polygon points="170.023,29.84 170.023,53.721 143.992,53.721 143.992,29.84 133.587,29.84 133.587,85.358 143.992,85.358 143.992,61.093 170.023,61.093 170.023,85.358 180.428,85.358 180.428,29.84 "/> </g> </g><g> <g> <polygon points="350.017,76.834 350.017,29.84 339.688,29.84 339.688,85.358 372.247,85.358 372.247,76.834 "/> </g> </g><g> <g> <polygon points="245.353,29.84 245.353,38.325 262.132,38.325 262.132,85.358 272.46,85.358 272.46,38.325 289.161,38.325 289.161,29.84 "/> </g> </g><g> <g> <polygon points="330.743,38.056 330.743,29.84 295.727,29.84 295.727,85.358 330.743,85.358 330.743,77.103 306.132,77.103 306.132,61.4 325.521,61.4 325.521,53.452 306.132,53.452 306.132,38.056 "/> </g> </g></symbol><symbol id="traveler" viewBox="0 0 511.999 511.999"><title>traveler</title><g> <g> <path d="M505.372,245.319l-1.178-3.031c-3.884-10.043-13.353-16.533-24.123-16.533h-53.835 c-11.299-18.892-31.924-30.789-54.216-30.789h-11.237v-25.34h11.755c6.763,0,12.962-3.41,16.585-9.12 c3.622-5.71,4.063-12.772,1.181-18.889l-12.184-25.861C376.895,56.485,328.303,8.644,268.743,8.644h-25.477 c-59.56,0-108.151,47.84-109.378,107.111l-12.184,25.862c-2.882,6.117-2.441,13.179,1.182,18.889 c3.622,5.71,9.821,9.12,16.584,9.12h11.755v25.34h-11.237c-22.296,0-42.925,11.902-54.217,30.789H31.757 c-10.589,0-19.998,6.349-23.962,16.151l-0.642,1.578c-9.538,23.596-9.538,49.585,0,73.184l0.633,1.563 c3.971,9.819,13.38,16.164,23.972,16.164h45.095v6.802c-10.897,20.448-16.661,43.401-16.661,66.575v62.581 c0,18.197,14.805,33.003,33.002,33.003h62.919h199.779h62.919c18.198,0,33.003-14.805,33.003-33.003v-62.581 c0-23.174-5.764-46.127-16.661-66.575v-6.802h45.275c5.095,0,10.035-1.487,14.284-4.3c4.244-2.808,7.539-6.78,9.53-11.487 C514.181,295.136,514.583,269.111,505.372,245.319z M360.785,226.522v-11.559h11.236c16.735,0,32.1,9.812,39.151,25.013 c2.645,5.678,3.986,11.775,3.986,18.123v54.641c-16.303-18.006-38.737-33.149-62.663-39.236c-0.728-0.186-1.459-0.364-2.192-0.535 c5.402-11.377,8.813-23.687,9.992-36.241C360.62,233.412,360.785,229.978,360.785,226.522z M140.033,149.629l10.165-21.577 h100.097c5.522,0,9.999-4.477,9.999-9.999v-0.001c-0.001-5.521-4.477-9.997-9.998-9.997h-95.879 c4.986-44.613,42.927-79.414,88.849-79.414h25.477c45.922,0,83.862,34.801,88.849,79.414h-26.98c-5.522,0-9.998,4.476-9.998,9.997 v0.001c0,5.522,4.476,9.999,9.999,9.999h31.198l10.165,21.577h-21.189H161.223H140.033z M340.786,169.626v35.338v21.557 c0,2.808-0.133,5.587-0.398,8.297c-1.345,14.319-6.232,28.217-14.146,40.212c-6.972,10.623-15.966,19.437-26.737,26.199 c-4.129,2.596-8.447,4.786-12.894,6.57c-3.169,1.271-6.403,2.337-9.683,3.197c-14.21,3.725-29.255,3.583-43.403-0.424 c-7.332-2.077-14.422-5.193-21.03-9.347c-2.562-1.608-5.016-3.341-7.374-5.179c-7.552-5.888-14.053-12.933-19.391-21.066 c-1.222-1.839-2.4-3.782-3.504-5.784c-5.909-10.695-9.479-22.258-10.612-34.419c-0.261-2.665-0.394-5.443-0.394-8.256v-21.557 v-35.338H340.786z M96.914,255.731c0.293-5.498,1.61-10.789,3.93-15.77c7.044-15.186,22.409-24.998,39.145-24.998h11.237v11.559 c0,3.462,0.165,6.896,0.485,10.161c1.181,12.666,4.533,24.841,9.978,36.276c-22.925,5.315-44.129,18.636-60.603,35.313 c-0.159,0.161-0.315,0.326-0.473,0.487c-1.235,1.263-2.452,2.546-3.642,3.858c-0.039,0.042-0.08,0.082-0.118,0.125v-54.643h-0.002 C96.851,257.306,96.872,256.516,96.914,255.731z M77.849,246.938c-0.079,0.443-0.16,0.885-0.229,1.33 c-0.102,0.656-0.186,1.317-0.268,1.978c-0.052,0.423-0.111,0.844-0.155,1.269c-0.075,0.73-0.127,1.464-0.177,2.199 c-0.024,0.36-0.06,0.718-0.078,1.079c-0.056,1.097-0.088,2.199-0.088,3.307v56.299H31.757c-2.401,0-4.533-1.438-5.433-3.664 l-0.632-1.561c-7.585-18.764-7.585-39.431-0.01-58.169l0.642-1.577c0.903-2.232,3.035-3.674,5.433-3.674h46.296 C77.976,246.147,77.919,246.544,77.849,246.938z M418.813,483.359h-52.92v-52.893c0-5.522-4.476-9.999-9.999-9.999 c-5.523,0-9.999,4.477-9.999,9.999v52.893H166.113v-52.893c0-5.522-4.476-9.999-9.999-9.999s-9.999,4.477-9.999,9.999v52.893 h-52.92c-7.171,0-13.005-5.834-13.005-13.006v-62.581c0-20.666,5.323-41.134,15.392-59.188c0.537-0.962,1.084-1.911,1.621-2.823 c3.144-5.287,6.685-10.34,10.532-15.025c15.605-19.035,38.856-35.457,64.929-39.554c7.976,10.749,17.774,19.806,29.196,26.976 c32.893,20.679,75.398,20.679,108.286,0.004c11.423-7.172,21.221-16.228,29.196-26.975c2.766,0.437,5.512,1.004,8.215,1.694 c21.899,5.573,42.433,20.429,56.72,37.856c1.138,1.388,2.248,2.805,3.326,4.246c3.235,4.326,6.192,8.88,8.821,13.595 c10.072,18.059,15.395,38.527,15.395,59.193v62.582h0C431.819,477.525,425.984,483.359,418.813,483.359z M485.829,310.813 c-0.001,0.001-0.001,0.003-0.002,0.005c-0.453,1.071-1.196,1.97-2.15,2.602c-0.967,0.64-2.09,0.978-3.247,0.978h-45.275v-56.299 c0-1.108-0.032-2.21-0.088-3.308c-0.018-0.363-0.054-0.722-0.079-1.083c-0.05-0.733-0.102-1.465-0.177-2.193 c-0.044-0.431-0.104-0.858-0.157-1.287c-0.081-0.653-0.164-1.305-0.265-1.953c-0.071-0.456-0.154-0.91-0.235-1.364 c-0.069-0.386-0.124-0.775-0.2-1.16h46.117c2.443,0,4.592,1.471,5.477,3.761l1.179,3.035 C494.049,271.459,493.73,292.151,485.829,310.813z"/> </g> </g><g> <g> <path d="M300.253,116.101c-0.574-3.063-2.746-5.954-5.979-7.279c-0.6-0.25-1.23-0.44-1.87-0.57 c-4.544-0.915-9.331,1.471-11.178,5.98c-1.306,3.132-0.918,6.687,0.92,9.369c1.695,2.59,4.806,4.449,8.309,4.449 c0.65,0,1.31-0.069,1.949-0.199c0.64-0.12,1.27-0.32,1.87-0.57c3.196-1.31,5.389-4.173,5.979-7.268 c0.13-0.649,0.2-1.308,0.2-1.957v-0.001v-0.005C300.453,117.401,300.383,116.741,300.253,116.101z"/> </g> </g><g> <g> <path d="M285.816,255.887c-3.452-4.312-9.744-5.01-14.054-1.557c-9.281,7.429-22.246,7.429-31.527,0 c-4.313-3.452-10.604-2.754-14.054,1.557c-3.45,4.312-2.753,10.604,1.558,14.054c8.32,6.66,18.29,9.99,28.26,9.99 c9.97,0,19.941-3.33,28.26-9.99C288.57,266.49,289.267,260.198,285.816,255.887z"/> </g> </g></symbol><symbol id="calendar" viewBox="0 0 64 64"><title>calendar</title><path d="M47.8000488,51.1338005c-0.3311005-0.4434013-0.9589996-0.5321999-1.3993988-0.2001991 c-0.4424019,0.3309975-0.532299,0.9580002-0.2001991,1.3993988l3.2001991,4.2666016 C49.5900497,56.8525009,49.8869514,57,50.2004509,57c0.0165977,0,0.0341988,0,0.0517006-0.0009995 c0.3320999-0.017601,0.6348-0.1991997,0.8056984-0.4844017l4.7998009-8 c0.2841988-0.4735985,0.1308975-1.0877991-0.3428001-1.3719978c-0.4746017-0.285202-1.0879021-0.1309013-1.3720016,0.3426971 l-4.0351982,6.7247009L47.8000488,51.1338005z"/><path d="M60.0002518,6.0037999h-15V1c0-0.5527-0.4473-1-1-1c-0.552803,0-1,0.4473-1,1v5.0037999H22.0002499V1 c0-0.5527-0.4473-1-1-1c-0.5527992,0-1,0.4473-1,1v5.0037999H3.9997499c-2.2091999,0-4,1.7908001-4,4.0000005V60 c0,2.2090988,1.7908,4,4,4h56.0005035c2.2090988,0,4-1.7909012,4-4V10.0038004 C64.0002518,7.7946,62.2093506,6.0037999,60.0002518,6.0037999z M3.9997499,8.0038004h16.0004997V11c0,0.5527,0.4472008,1,1,1 c0.5527,0,1-0.4473,1-1V8.0038004h21.0000019V11c0,0.5527,0.447197,1,1,1c0.5527,0,1-0.4473,1-1V8.0038004h15 c1.1027985,0,2,0.8970995,2,2V17h-60L1.99975,17.0000992v-6.9962988C1.99975,8.9008999,2.89695,8.0038004,3.9997499,8.0038004z M62.0002518,60c0,1.1027985-0.8972015,2-2,2H3.9997499C2.89695,62,1.99975,61.1027985,1.99975,60V18.9999008L2.0002501,19h60V60z"/><path d="M18.0002499,24h-8v8h8V24z M16.0002499,30h-4v-4h4V30z"/><path d="M36.0002518,24h-8.0000019v8h8.0000019V24z M34.0002518,30h-4.0000019v-4h4.0000019V30z"/><path d="M54.0002518,24h-8v8h8V24z M52.0002518,30h-4v-4h4V30z"/><path d="M18.0002499,36h-8v8h8V36z M16.0002499,42h-4v-4h4V42z"/><path d="M36.0002518,36h-8.0000019v8h8.0000019V36z M34.0002518,42h-4.0000019v-4h4.0000019V42z"/><path d="M18.0002499,48h-8v8h8V48z M16.0002499,54h-4v-4h4V54z"/><path d="M36.0002518,48h-8.0000019v8h8.0000019V48z M34.0002518,54h-4.0000019v-4h4.0000019V54z"/><path d="M54.0002518,36h-8v8h8V36z M52.0002518,42h-4v-4h4V42z"/></symbol><symbol id="wallet" viewBox="0 0 512 512"><title>wallet</title><path d="M502,202.088h-17.434v-87.615c0-16.26-13.229-29.489-29.489-29.489h-2.342l-2.84-54.259 c-0.397-7.594-3.728-14.579-9.379-19.667c-5.651-5.088-12.948-7.68-20.539-7.275L79.313,21.613 C63.637,22.434,51.55,35.855,52.371,51.532l1.751,33.452h-4.905C22.079,84.984,0,107.063,0,134.201v261.28 c0,27.138,22.079,49.217,49.217,49.217h61.029c4.896,35.845,35.694,63.56,72.861,63.56c28.466,0,54.19-16.485,66.314-41.742 c1.266,0.065,2.539,0.099,3.821,0.099c20.453,0,38.976-8.397,52.322-21.917h149.514c16.26,0,29.489-13.229,29.489-29.488v-71.177 H502c5.523,0,10-4.477,10-10V212.088C512,206.565,507.523,202.088,502,202.088z M80.359,41.586l340.665-17.83 c2.259-0.119,4.429,0.651,6.11,2.164c1.681,1.514,2.672,3.592,2.79,5.851l2.786,53.213H74.149l-1.805-34.498 C72.1,45.822,75.696,41.83,80.359,41.586z M183.107,488.258c-29.533,0-53.559-24.027-53.559-53.56 c0-28.706,22.702-52.209,51.093-53.503c-0.017,0.102-0.027,0.205-0.044,0.306c-0.067,0.42-0.121,0.844-0.18,1.267 c-0.101,0.715-0.194,1.431-0.274,2.149c-0.047,0.428-0.09,0.857-0.13,1.287c-0.071,0.765-0.128,1.532-0.175,2.3 c-0.023,0.373-0.05,0.745-0.068,1.119c-0.053,1.142-0.087,2.286-0.087,3.433c0,1.178,0.033,2.354,0.089,3.526 c0.022,0.474,0.064,0.944,0.095,1.416c0.046,0.679,0.091,1.358,0.155,2.034c0.056,0.596,0.129,1.187,0.199,1.779 c0.064,0.535,0.128,1.07,0.204,1.603c0.093,0.66,0.199,1.315,0.31,1.969c0.077,0.452,0.157,0.902,0.242,1.352 c0.132,0.698,0.271,1.392,0.423,2.083c0.087,0.398,0.182,0.794,0.275,1.19c0.17,0.717,0.344,1.432,0.534,2.141 c0.1,0.371,0.21,0.738,0.315,1.107c0.205,0.716,0.409,1.431,0.635,2.138c0.124,0.389,0.263,0.772,0.393,1.158 c0.227,0.672,0.449,1.346,0.694,2.009c0.383,1.037,0.789,2.066,1.219,3.085c0.027,0.064,0.058,0.127,0.086,0.191 c0.435,1.024,0.896,2.038,1.378,3.042c0.036,0.075,0.076,0.148,0.112,0.223c0.485,1.003,0.994,1.994,1.525,2.974 c0.01,0.018,0.02,0.035,0.029,0.053c2.473,4.558,5.425,8.874,8.847,12.854c6.602,7.677,14.674,13.85,23.637,18.215 c0.183,0.089,0.365,0.179,0.548,0.266c0.958,0.457,1.924,0.898,2.901,1.314c0.168,0.071,0.339,0.136,0.507,0.206 c0.791,0.329,1.589,0.643,2.392,0.945c0.333,0.125,0.666,0.25,1.002,0.37c0.159,0.057,0.315,0.119,0.473,0.174 C219.329,478.237,202.049,488.258,183.107,488.258z M253.242,446.616c-3.155,0-6.242-0.29-9.25-0.816 c-0.566-0.098-1.132-0.196-1.691-0.311c-21.665-4.515-38.57-22.156-41.985-44.199c-0.008-0.05-0.016-0.1-0.024-0.15 c-0.115-0.758-0.209-1.522-0.292-2.289c-0.016-0.155-0.037-0.309-0.052-0.464c-0.069-0.693-0.118-1.392-0.16-2.093 c-0.012-0.198-0.03-0.393-0.04-0.591c-0.043-0.877-0.067-1.758-0.067-2.646c0-0.85,0.025-1.694,0.064-2.534 c0.013-0.284,0.036-0.567,0.054-0.851c0.035-0.555,0.075-1.108,0.126-1.658c0.032-0.337,0.069-0.672,0.107-1.008 c0.056-0.494,0.119-0.986,0.188-1.476c0.05-0.353,0.101-0.707,0.158-1.059c0.077-0.473,0.164-0.942,0.253-1.411 c0.067-0.352,0.129-0.705,0.203-1.056c0.106-0.504,0.227-1.003,0.347-1.502c0.109-0.451,0.22-0.901,0.341-1.349 c0.164-0.608,0.332-1.215,0.517-1.815c0.1-0.325,0.213-0.647,0.319-0.971c7.032-21.383,27.177-36.87,50.883-36.87 c29.533,0,53.56,24.026,53.56,53.559C306.801,422.589,282.774,446.616,253.242,446.616z M464.566,415.21 c0,5.232-4.257,9.488-9.489,9.488H319.636c4.589-9.59,7.165-20.32,7.165-31.643c0-40.561-32.999-73.559-73.56-73.559 c-29.176,0-54.438,17.074-66.321,41.755c-1.275-0.067-2.548-0.113-3.814-0.113c-37.167,0-67.965,27.714-72.861,63.56H96.353 V306.005c0-5.523-4.477-10-10-10c-5.523,0-10,4.477-10,10v118.694H49.217c-16.11,0-29.217-13.106-29.217-29.217v-261.28 c0-16.11,13.106-29.217,29.217-29.217h15.442h378.586h11.832c5.232,0,9.489,4.257,9.489,9.489v87.615h-60.492 c-39.134,0-70.973,31.838-70.973,70.973c0,39.135,31.838,70.973,70.973,70.973h60.492V415.21z M492,324.033h-17.434h-70.492 c-28.106,0-50.973-22.866-50.973-50.973s22.866-50.973,50.973-50.973h70.492H492V324.033z"/><path d="M408.853,236.212c-20.62,0-37.396,16.776-37.396,37.396c0,20.621,16.776,37.396,37.396,37.396 c20.621,0,37.396-16.776,37.396-37.396S429.473,236.212,408.853,236.212z M408.853,291.005c-9.592,0-17.396-7.804-17.396-17.396 c0-9.592,7.804-17.396,17.396-17.396c9.592,0,17.396,7.804,17.396,17.396C426.249,283.201,418.445,291.005,408.853,291.005z"/><path d="M95.91,257.731c-0.25-0.61-0.56-1.19-0.92-1.73c-0.37-0.54-0.79-1.06-1.25-1.52c-0.46-0.46-0.97-0.88-1.52-1.24 c-0.54-0.36-1.12-0.67-1.72-0.92c-0.61-0.25-1.24-0.44-1.87-0.57c-1.29-0.26-2.62-0.26-3.91,0c-0.64,0.13-1.27,0.32-1.87,0.57 c-0.61,0.25-1.19,0.56-1.73,0.92c-0.55,0.36-1.06,0.78-1.52,1.24c-0.46,0.46-0.88,0.98-1.24,1.52c-0.36,0.54-0.67,1.12-0.92,1.73 c-0.25,0.6-0.44,1.23-0.57,1.87c-0.13,0.64-0.2,1.3-0.2,1.95s0.07,1.31,0.2,1.96c0.13,0.63,0.32,1.26,0.57,1.87 c0.25,0.6,0.56,1.18,0.92,1.72c0.36,0.55,0.78,1.06,1.24,1.52c0.46,0.47,0.97,0.88,1.52,1.25c0.54,0.36,1.12,0.67,1.73,0.92 c0.6,0.25,1.23,0.44,1.87,0.57c0.64,0.13,1.3,0.19,1.95,0.19c0.65,0,1.31-0.06,1.96-0.19c0.63-0.13,1.26-0.32,1.87-0.57 c0.6-0.25,1.18-0.56,1.72-0.92c0.55-0.37,1.06-0.78,1.52-1.25c0.46-0.46,0.88-0.97,1.25-1.52c0.36-0.54,0.67-1.12,0.92-1.72 c0.25-0.61,0.44-1.24,0.57-1.87c0.13-0.65,0.19-1.31,0.19-1.96c0-0.65-0.06-1.31-0.19-1.95 C96.35,258.961,96.16,258.331,95.91,257.731z"/></symbol><symbol id="monitor" viewBox="0 0 511.999 511.999"><title>monitor</title><g> <g> <path d="M481.091,27.937H30.909C13.866,27.937,0,41.803,0,58.846v310.819c0,17.043,13.866,30.909,30.909,30.909h154.26v22.49 c0,20.617-16.774,37.391-37.391,37.391h-33.997c-6.518,0-11.803,5.284-11.803,11.803c0,6.519,5.285,11.803,11.803,11.803h284.436 c6.518,0,11.803-5.284,11.803-11.803c0-6.519-5.285-11.803-11.803-11.803h-33.998c-20.617,0-37.391-16.774-37.391-37.391v-22.489 h154.26c17.043,0,30.91-13.866,30.91-30.909V58.846C512,41.803,498.134,27.937,481.091,27.937z M195.92,460.457 c8.046-10.336,12.857-23.308,12.857-37.391v-22.49h94.447v22.49c0,14.083,4.811,27.056,12.857,37.391H195.92z M488.394,369.666 c0,4.027-3.276,7.304-7.304,7.304H30.909c-4.027,0-7.304-3.276-7.304-7.304v-62.033h464.789V369.666z M488.394,284.026H23.606 V58.846c0-4.027,3.276-7.304,7.304-7.304h450.18c4.027,0,7.305,3.276,7.305,7.304V284.026z"/> </g> </g><g> <g> <circle cx="256.003" cy="342.305" r="12.738"/> </g> </g><g> <g> <path d="M276.238,109.254c-4.61-4.609-12.081-4.609-16.693,0l-83.414,83.414c-4.609,4.609-4.609,12.083,0,16.693 c2.306,2.305,5.325,3.457,8.347,3.457c3.022,0,6.041-1.152,8.346-3.457l83.414-83.414 C280.847,121.338,280.847,113.864,276.238,109.254z"/> </g> </g><g> <g> <path d="M325.678,157.593c-4.608-4.609-12.079-4.609-16.692-0.001l-33.23,33.228c-4.609,4.61-4.609,12.084,0,16.693 c2.305,2.305,5.325,3.457,8.346,3.457c3.02,0,6.041-1.152,8.346-3.457l33.23-33.228 C330.287,169.676,330.287,162.202,325.678,157.593z"/> </g> </g></symbol></svg>